<svg xmlns="http://www.w3.org/2000/svg" viewBox="0 0 1280 640">
  <rect width="1280" height="640" fill="#0B1220"/>
  <rect x="80" y="80" width="1120" height="480" rx="28" fill="#111827" stroke="#263247" stroke-width="2"/>
  <g transform="translate(125 184) scale(1.55)">
    <path fill="#F8FAFC" fill-rule="evenodd" d="M18 18h53c45 0 71 23 71 62s-26 62-71 62H18V18Zm31 30v64h22c28 0 42-11 42-32S99 48 71 48H49Z"/>
    <path fill="none" stroke="#F04F83" stroke-width="11" stroke-linecap="round" stroke-linejoin="round" d="M59 101h18l21-24h24"/>
    <circle cx="59" cy="101" r="9" fill="#F04F83"/><circle cx="98" cy="77" r="9" fill="#F04F83"/><circle cx="122" cy="77" r="9" fill="#F04F83"/>
  </g>
  <text x="405" y="280" fill="#F8FAFC" font-family="Inter,Segoe UI,Arial,sans-serif" font-size="76" font-weight="740" letter-spacing="-2.2">Dragon Fruit</text>
  <text x="900" y="280" fill="#F04F83" font-family="Inter,Segoe UI,Arial,sans-serif" font-size="76" font-weight="740" letter-spacing="-2.2">Relay</text>
  <text x="410" y="340" fill="#94A3B8" font-family="Inter,Segoe UI,Arial,sans-serif" font-size="27" font-weight="550">Route-based egress networking for 3x-ui and Debian</text>
  <line x1="410" y1="384" x2="1090" y2="384" stroke="#334155" stroke-width="2"/>
  <text x="410" y="438" fill="#CBD5E1" font-family="Inter,Segoe UI,Arial,sans-serif" font-size="22">3x-ui companion · strongSwan · XFRM · policy routing</text>
</svg>
